<?xml version="1.0" encoding="utf-8"?>
<!-- Generator: Adobe Illustrator 15.0.0, SVG Export Plug-In . SVG Version: 6.00 Build 0)  -->
<!DOCTYPE svg PUBLIC "-//W3C//DTD SVG 1.1//EN" "http://www.w3.org/Graphics/SVG/1.1/DTD/svg11.dtd">
<svg version="1.1"
	 id="svg2" inkscape:export-ydpi="215.44792" inkscape:export-xdpi="215.44792" sodipodi:docname="red_joker.svg" inkscape:version="0.48.0 r9654" xmlns:dc="http://purl.org/dc/elements/1.1/" xmlns:cc="http://creativecommons.org/ns#" xmlns:rdf="http://www.w3.org/1999/02/22-rdf-syntax-ns#" xmlns:svg="http://www.w3.org/2000/svg" xmlns:sodipodi="http://sodipodi.sourceforge.net/DTD/sodipodi-0.dtd" xmlns:inkscape="http://www.inkscape.org/namespaces/inkscape" inkscape:export-filename="/home/byron/art/cards/final/PNGs/red_joker.png"
	 xmlns="http://www.w3.org/2000/svg" xmlns:xlink="http://www.w3.org/1999/xlink" x="0px" y="0px" width="167.086px"
	 height="242.667px" viewBox="0 0 167.086 242.667" enable-background="new 0 0 167.086 242.667" xml:space="preserve">
<sodipodi:namedview  inkscape:current-layer="svg2" inkscape:window-y="25" inkscape:window-x="0" inkscape:window-height="977" inkscape:window-width="1680" inkscape:pageshadow="2" inkscape:pageopacity="0" id="namedview39" inkscape:cy="152.384" inkscape:cx="41.637871" inkscape:zoom="2.4336873" showgrid="false" guidetolerance="10" gridtolerance="10" objecttolerance="10" borderopacity="1" bordercolor="#666666" pagecolor="#ffffff" inkscape:window-maximized="1">
	</sodipodi:namedview>
<g id="Layer_x0020_1">
	<path id="path5" fill="#FFFFFF" stroke="#000000" stroke-width="0.5" d="M166.836,235.548c0,3.777-3.086,6.869-6.871,6.869H7.111
		c-3.775,0-6.861-3.092-6.861-6.869V7.12c0-3.777,3.086-6.87,6.861-6.87h152.854c3.785,0,6.871,3.093,6.871,6.87V235.548z"/>
	<g id="g7">
		<g id="g9">
		</g>
	</g>
	<g id="g15">
	</g>
	<g id="g19">
	</g>
	<g id="g23">
		<g id="g25">
		</g>
	</g>
	<g id="g31">
		<g id="g33">
		</g>
	</g>
</g>
<g id="layer1-7-88" transform="matrix(2.2711763,2.2711763,-2.0765626,2.0765626,117.0668,94.436511)">
	<path id="sl-4" sodipodi:nodetypes="cccccccccc" inkscape:connector-curvature="0" d="M7.989,3.103C7.747-0.954,0.242-8.59,0-10.5
		C-0.242-8.591-7.747-0.955-7.989,3.103C-8.158,5.971-6.294,7.16-4.599,7.16c1.835-0.022,3.351-2.801,3.873-3.341
		c0.242,0.716-1.603,6.682-2.179,6.682l5.811,0c-0.576,0-2.421-5.966-2.179-6.682C1.184,4.315,2.524,7.077,4.601,7.16
		C6.295,7.159,8.158,5.971,7.989,3.103z"/>
</g>
<g id="layer1-9" transform="matrix(2.374378,-2.374378,2.2221918,2.2221918,59.383523,95.635421)">
	<path id="hl" sodipodi:nodetypes="scsscss" inkscape:connector-curvature="0" fill="#DF0000" d="M3.676-9C0.433-9,0-5.523,0-5.523
		S-0.433-9-3.676-9C-5.946-9-8-7.441-8-4.5C-8-0.614-1.421,3.294,0,9C1.352,3.299,8-0.614,8-4.5C8-7.441,5.946-9,3.676-9z"/>
</g>
<g id="layer1-1" transform="matrix(-2.145754,-2.145754,2.145754,-2.145754,110.19878,305.77847)">
	<path id="cl" inkscape:connector-curvature="0" d="M50.291,22.698c0,0,2.375-1.9,2.375-4.534c0-1.542-1.369-4.102-4.534-4.102
		c-3.165,0-4.534,2.561-4.534,4.102c0,2.634,2.375,4.534,2.375,4.534c-2.638-2.055-7.341-0.652-7.341,3.455
		c0,2.056,1.68,4.318,4.318,4.318c3.165,0,4.534-3.455,4.534-3.455s0.402,3.938-1.943,6.046h5.182
		c-2.345-2.107-1.943-6.046-1.943-6.046s1.369,3.455,4.534,3.455c2.639,0,4.318-2.263,4.318-4.318
		C57.632,22.046,52.929,20.643,50.291,22.698z"/>
</g>
<g id="layer1-2" transform="matrix(2.235014,-2.235014,2.235014,2.235014,117.78936,156.16707)">
	<path id="dl" sodipodi:nodetypes="ccccccccc" inkscape:connector-curvature="0" fill="#DF0000" d="M3.243-4.725
		C1.126-7.589,0-10.5,0-10.5s-1.127,2.911-3.244,5.775C-5.361-1.862-8,0-8,0s2.639,1.862,4.757,4.727C-1.126,7.589,0,10.5,0,10.5
		s1.126-2.91,3.243-5.773C5.361,1.861,8,0,8,0S5.361-1.862,3.243-4.725z"/>
</g>
</svg>
